<svg xmlns="http://www.w3.org/2000/svg" width="1200" height="400" viewBox="0 0 1200 400" role="img" aria-label="MELETA — La pratique clinique, ça s'entraîne">
  <defs>
    <radialGradient id="eg" cx="92%" cy="0%" r="80%">
      <stop offset="0%" stop-color="#0e5a54" stop-opacity="0.14"/>
      <stop offset="60%" stop-color="#0e5a54" stop-opacity="0"/>
    </radialGradient>
  </defs>
  <rect width="1200" height="400" fill="#f4f1e9"/>
  <rect width="1200" height="400" fill="url(#eg)"/>

  <!-- Logo -->
  <g transform="translate(72,48)">
    <rect width="56" height="56" rx="14" fill="#0e5a54"/>
    <g transform="translate(17,14) scale(0.9)" stroke="#ffffff" stroke-width="2.4" fill="none" stroke-linecap="round" stroke-linejoin="round">
      <path d="M12 3a3.2 3.2 0 0 0-3.2 3.2 2.7 2.7 0 0 0-2.1 4.3 2.7 2.7 0 0 0 1.6 4.8A2.7 2.7 0 0 0 12 20"/>
      <path d="M12 3a3.2 3.2 0 0 1 3.2 3.2 2.7 2.7 0 0 1 2.1 4.3 2.7 2.7 0 0 1-1.6 4.8A2.7 2.7 0 0 1 12 20"/>
      <path d="M12 3v17"/>
    </g>
    <text x="72" y="37" font-family="Fraunces, Georgia, 'Times New Roman', serif" font-size="27" font-weight="700" fill="#15302c" letter-spacing="0.5">MELETA</text>
  </g>

  <text x="72" y="215" font-family="Fraunces, Georgia, 'Times New Roman', serif" font-size="52" font-weight="700" fill="#15302c" letter-spacing="-1">La pratique clinique, <tspan fill="#0e5a54">ça s'entraîne.</tspan></text>
  <text x="74" y="268" font-family="'Hanken Grotesk', system-ui, Arial, sans-serif" font-size="24" fill="#3f514c">Cas réalistes · patient simulé par IA · progression par compétences.</text>

  <g transform="translate(72,308)">
    <rect width="340" height="50" rx="25" fill="#0e5a54"/>
    <text x="170" y="33" text-anchor="middle" font-family="'Hanken Grotesk', system-ui, Arial, sans-serif" font-size="20" font-weight="600" fill="#ffffff">Essai gratuit — sans carte bancaire</text>
    <text x="372" y="33" font-family="'Hanken Grotesk', system-ui, Arial, sans-serif" font-size="20" font-weight="700" fill="#15302c">meleta.app</text>
  </g>
</svg>
